<svg xmlns="http://www.w3.org/2000/svg" xmlns:xlink="http://www.w3.org/1999/xlink" x="0px" y="0px" viewBox="0 0 15.4 15.6" style="enable-background:new 0 0 15.4 15.6;" xml:space="preserve">
<style type="text/css">
.st6{fill-rule:evenodd;clip-rule:evenodd;}
</style>
<path id="_" class="st6" d="M14.3,1.1c0.1,0.1,0.2,0.3,0.2,0.4v12.6c0,0.2-0.1,0.3-0.2,0.4c-0.1,0.1-0.3,0.2-0.4,0.2H1.5 c-0.2,0-0.3-0.1-0.4-0.2c-0.1-0.1-0.2-0.3-0.2-0.4V1.5c0-0.2,0.1-0.3,0.2-0.4C1.2,1,1.4,0.9,1.5,0.9h12.4C14,0.9,14.2,1,14.3,1.1z M7.7,5.4C7.1,5.4,6.5,5.7,6,6.1C5.1,7.1,5.1,8.6,6,9.5c0.9,0.9,2.4,0.9,3.3,0c0,0,0,0,0,0c0.9-0.9,0.9-2.4,0-3.4 C8.9,5.7,8.3,5.4,7.7,5.4L7.7,5.4z M12.8,7h-1.1c0.1,0.3,0.1,0.6,0.1,0.9c0,1.1-0.4,2.1-1.2,2.9c-1.5,1.6-4.1,1.6-5.6,0.1 c0,0-0.1-0.1-0.1-0.1C4.1,10,3.6,8.9,3.6,7.8c0-0.3,0-0.6,0.1-0.9H2.6v6h10.2L12.8,7L12.8,7z M12.8,2.6h-2.5v2.6h2.5L12.8,2.6 L12.8,2.6z"></path>
</svg>