<svg xmlns="http://www.w3.org/2000/svg" width="157" height="23" viewBox="0 0 157 23">
  <defs>
    <style>
      .cls-1 {
        fill-rule: evenodd;
      }
    </style>
  </defs>
  <path id="Canpack" class="cls-1" d="M17.02,21.19a7.834,7.834,0,0,0,2.97-4.89H16.45a4.7,4.7,0,0,1-1.8,2.79,6.07,6.07,0,0,1-3.69,1.02,6.223,6.223,0,0,1-4.98-2.13,8.684,8.684,0,0,1-1.83-5.85,8.793,8.793,0,0,1,1.83-5.9A6.2,6.2,0,0,1,10.96,4.09a5.827,5.827,0,0,1,3.69,1.08,4.988,4.988,0,0,1,1.8,2.91h3.54a8.031,8.031,0,0,0-2.97-5.04,9.61,9.61,0,0,0-6.03-1.8A10.152,10.152,0,0,0,5.605,2.62a9.238,9.238,0,0,0-3.5,3.825A12.489,12.489,0,0,0,.88,12.13a12.417,12.417,0,0,0,1.23,5.655,9.134,9.134,0,0,0,3.5,3.81A10.233,10.233,0,0,0,10.99,22.96,9.722,9.722,0,0,0,17.02,21.19Zm8.1,1.41,1.8-5.13H35.5l1.8,5.13h3.36l-7.68-21H29.5l-7.74,21h3.36ZM31.21,5.38l3.39,9.57H27.82ZM46.78,22.6V6.79L57.31,22.6h3.18V1.6H57.31V17.41L46.78,1.6H43.6v21h3.18Zm21.15,0V14.14H72.1a8.965,8.965,0,0,0,4.14-.84,5.459,5.459,0,0,0,2.385-2.265A6.521,6.521,0,0,0,79.39,7.9a6.51,6.51,0,0,0-.8-3.225,5.565,5.565,0,0,0-2.415-2.25A8.955,8.955,0,0,0,72.1,1.6H64.75v21h3.18Zm0-18.39h4.02a4.444,4.444,0,0,1,3.225.975A3.672,3.672,0,0,1,76.15,7.9a3.588,3.588,0,0,1-.975,2.655,4.443,4.443,0,0,1-3.225.975H67.93V4.21ZM82.12,22.6l1.8-5.13H92.5l1.8,5.13h3.36l-7.68-21H86.5l-7.74,21h3.36ZM88.21,5.38l3.39,9.57H84.82ZM114.79,21.19a7.834,7.834,0,0,0,2.97-4.89h-3.54a4.7,4.7,0,0,1-1.8,2.79,6.073,6.073,0,0,1-3.69,1.02,6.222,6.222,0,0,1-4.98-2.13,8.68,8.68,0,0,1-1.83-5.85,8.789,8.789,0,0,1,1.83-5.9,6.2,6.2,0,0,1,4.98-2.145,5.83,5.83,0,0,1,3.69,1.08,5,5,0,0,1,1.8,2.91h3.54a8.031,8.031,0,0,0-2.97-5.04,9.61,9.61,0,0,0-6.03-1.8,10.148,10.148,0,0,0-5.385,1.38,9.231,9.231,0,0,0-3.5,3.825,12.489,12.489,0,0,0-1.23,5.685,12.417,12.417,0,0,0,1.23,5.655,9.128,9.128,0,0,0,3.5,3.81,10.229,10.229,0,0,0,5.385,1.365A9.722,9.722,0,0,0,114.79,21.19Zm9.659,1.41V14.74l2.16-2.34,6.36,10.2h3.87l-7.95-12.63,7.77-8.37h-3.93l-8.28,9v-9h-3.18v21h3.18Z"/>
  <path id="_" data-name="©" class="cls-1" d="M152.01,14.6a6.476,6.476,0,0,0,2.45-2.53,7.607,7.607,0,0,0,.88-3.71,7.566,7.566,0,0,0-.88-3.69,6.411,6.411,0,0,0-2.45-2.52,7.735,7.735,0,0,0-7.28,0,6.476,6.476,0,0,0-2.46,2.52,7.5,7.5,0,0,0-.89,3.69,7.545,7.545,0,0,0,.89,3.71,6.542,6.542,0,0,0,2.46,2.53A7.661,7.661,0,0,0,152.01,14.6Zm-6.83-.8a5.31,5.31,0,0,1-2.07-2.18,6.949,6.949,0,0,1-.73-3.26,6.95,6.95,0,0,1,.73-3.26,5.247,5.247,0,0,1,2.07-2.17,6.993,6.993,0,0,1,6.38,0,5.247,5.247,0,0,1,2.07,2.17,6.95,6.95,0,0,1,.73,3.26,6.949,6.949,0,0,1-.73,3.26,5.31,5.31,0,0,1-2.07,2.18A6.913,6.913,0,0,1,145.18,13.8Zm5.87-1.72a3.933,3.933,0,0,0,1.47-2.3h-2.24a2.291,2.291,0,0,1-.72,1.02,1.936,1.936,0,0,1-1.24.38,2.012,2.012,0,0,1-1.57-.71,3.092,3.092,0,0,1-.63-2.11,3.054,3.054,0,0,1,.63-2.1,2.05,2.05,0,0,1,3.53.7h2.24a3.872,3.872,0,0,0-1.47-2.34,4.35,4.35,0,0,0-2.67-.84,4.507,4.507,0,0,0-2.24.56,4.019,4.019,0,0,0-1.57,1.58A4.928,4.928,0,0,0,144,8.36a4.984,4.984,0,0,0,.57,2.45,3.931,3.931,0,0,0,1.57,1.58,4.567,4.567,0,0,0,2.24.55A4.28,4.28,0,0,0,151.05,12.08Z"/>
</svg>
