<svg xmlns="http://www.w3.org/2000/svg" viewBox="0 0 69 69" style="enable-background:new 0 0 100 84; stroke: transparent;" xml:space="preserve">
  <defs>
    <style>
      .cls-7 {
        fill-rule: evenodd;
      }

      .cls-8 {
        fill: none;
        stroke: #000;
        stroke-width: 1px;
      }
    </style>
  </defs>
  <path id="_2" data-name="2" class="cls-7" d="M37.929,39.9V38.537H33.99q0.611-.494,1.261-1.072a12.11,12.11,0,0,0,1.209-1.242,6.56,6.56,0,0,0,.9-1.378,3.351,3.351,0,0,0,.344-1.469,2.641,2.641,0,0,0-.773-1.969,2.955,2.955,0,0,0-2.164-.761,3.523,3.523,0,0,0-1.547.331,2.615,2.615,0,0,0-1.1,1,3.276,3.276,0,0,0-.442,1.671h1.612a1.786,1.786,0,0,1,.364-1.131,1.283,1.283,0,0,1,1.079-.468,1.151,1.151,0,0,1,1.008.429,1.661,1.661,0,0,1,.305.988,2.42,2.42,0,0,1-.37,1.229,7.509,7.509,0,0,1-.988,1.293,17.545,17.545,0,0,1-1.4,1.339q-0.787.676-1.619,1.365V39.9h6.266Z"></path>
  <circle id="Ellipse_1_copy_2" data-name="Ellipse 1 copy 2" class="cls-8" cx="34.5" cy="34.5" r="32.5"></circle>
</svg>