<svg xmlns="http://www.w3.org/2000/svg" viewBox="0 0 69 69" style="enable-background:new 0 0 100 84; stroke: transparent;" xml:space="preserve">
  <defs>
    <style>
      .cls-7 {
        fill-rule: evenodd;
      }

      .cls-8 {
        fill: none;
        stroke: #000;
        stroke-width: 1px;
      }
    </style>
  </defs>
  <path id="_3" data-name="3" class="cls-7" d="M36.571,39.681a2.659,2.659,0,0,0,1.06-1,2.687,2.687,0,0,0,.364-1.378,2.284,2.284,0,0,0-.481-1.489,2.1,2.1,0,0,0-1.248-.747,2.055,2.055,0,0,0,1.047-.709,2,2,0,0,0,.422-1.294,2.285,2.285,0,0,0-.331-1.209,2.38,2.38,0,0,0-.975-0.878,3.42,3.42,0,0,0-1.58-.331,3.114,3.114,0,0,0-2.139.728,2.671,2.671,0,0,0-.877,1.989h1.625a1.448,1.448,0,0,1,.4-0.923,1.513,1.513,0,0,1,1.911-.072,1.174,1.174,0,0,1-.11,1.736,1.869,1.869,0,0,1-1.105.312H33.86v1.365h0.676a2.2,2.2,0,0,1,1.319.37,1.254,1.254,0,0,1,.514,1.086,1.4,1.4,0,0,1-.39,1.014,1.484,1.484,0,0,1-1.118.4,1.555,1.555,0,0,1-1.189-.449,1.606,1.606,0,0,1-.436-1.111H31.6a3.086,3.086,0,0,0,.468,1.664,2.658,2.658,0,0,0,1.17.981,4.015,4.015,0,0,0,1.625.319A3.55,3.55,0,0,0,36.571,39.681Z"></path>
  <circle id="Ellipse_1_copy_3" data-name="Ellipse 1 copy 3" class="cls-8" cx="34.5" cy="34.5" r="32.5"></circle>
</svg>