<svg xmlns="http://www.w3.org/2000/svg" xmlns:xlink="http://www.w3.org/1999/xlink" viewBox="0 0 14.7 12.1" style="enable-background:new 0 0 14.7 12.1; stroke: transparent;" xml:space="preserve">

<path id="_" d="M12.6,2.2c0.6-0.1,1.1-0.2,1.6-0.5c-0.4,0.6-0.8,1.1-1.4,1.5v0.4c0,1-0.2,1.9-0.5,2.8  c-0.4,0.9-0.9,1.8-1.5,2.6c-0.7,0.8-1.5,1.5-2.5,1.9c-1.1,0.5-2.2,0.7-3.4,0.7c-1.5,0-3-0.4-4.3-1.3c0.2,0,0.5,0,0.7,0  c1.3,0,2.5-0.4,3.4-1.2C4.1,9.2,3.5,9,3.1,8.6c-0.5-0.4-0.8-0.9-1-1.4c0.2,0,0.4,0.1,0.5,0.1c0.2,0,0.5,0,0.7-0.1  c-0.6-0.1-1.2-0.5-1.6-1C1.4,5.7,1.1,5.1,1.1,4.4V4.4c0.4,0.2,0.8,0.4,1.2,0.4C1.1,3.9,0.8,2.2,1.5,0.9C2.2,1.8,3.1,2.5,4.1,3  c1,0.5,2.1,0.8,3.2,0.9C7.2,3.7,7.2,3.5,7.2,3.3c0-0.7,0.3-1.5,0.8-2c1.1-1.1,2.8-1.1,3.9-0.1c0,0,0.1,0.1,0.1,0.1  c0.6-0.1,1.2-0.3,1.8-0.7C13.6,1.3,13.1,1.9,12.6,2.2L12.6,2.2z"></path>
</svg>