<svg xmlns="http://www.w3.org/2000/svg" data-name="Layer 1" viewBox="0 0 261.09 156.45"><defs><style>.cls-1{fill:#1f201d;fill-rule:evenodd;}</style></defs><title>2</title><path class="cls-1" d="M374,231.29a77.08,77.08,0,0,0,5-15.64H207.39c-10.28,0-10.29,15.64,0,15.64Zm-172.28,14h15.46a7.85,7.85,0,0,1,7.65-6.2H370A78.91,78.91,0,0,1,358,254.76H224.8a7.86,7.86,0,0,1-7.65-6.2H201.69a7.85,7.85,0,0,1-7.65,6.2H160.46c-10.29,0-10.29-15.65,0-15.65H194A7.85,7.85,0,0,1,201.69,245.31Zm26.21-46.93h12.75a7.86,7.86,0,0,1,7.65-6.2H380.15a78.6,78.6,0,0,1,0,15.64H248.3a7.86,7.86,0,0,1-7.65-6.2H227.9a7.86,7.86,0,0,1-7.65,6.2H183.39c-10.29,0-10.3-15.64,0-15.64h36.86A7.86,7.86,0,0,1,227.9,198.38Zm-28.16-23.47H218.3a7.86,7.86,0,0,1,7.65-6.2H374a77.6,77.6,0,0,1,5,15.65H226a7.86,7.86,0,0,1-7.65-6.21H199.74a7.88,7.88,0,0,1-7.66,6.21H127.17c-10.29,0-10.29-15.65,0-15.65h64.91A7.87,7.87,0,0,1,199.74,174.91Zm62.44-23.47H275.6a7.86,7.86,0,0,1,7.65-6.2H358A78.62,78.62,0,0,1,370,160.89H283.25a7.86,7.86,0,0,1-7.65-6.2H262.18a7.86,7.86,0,0,1-7.65,6.2H213.4c-10.28,0-10.29-15.65,0-15.65h41.13A7.86,7.86,0,0,1,262.18,151.44Zm-18.7,117.34h12.7a7.85,7.85,0,0,1,7.65-6.2h85.28a77.69,77.69,0,0,1-46.79,15.65H263.83a7.85,7.85,0,0,1-7.65-6.2h-12.7a7.85,7.85,0,0,1-7.65,6.2H221.7c-10.29,0-10.29-15.65,0-15.65h14.13A7.86,7.86,0,0,1,243.48,268.78Zm-71.18-147c10.3,0,10.3,15.65,0,15.65S162,121.77,172.3,121.77ZM158,192.18c10.3,0,10.3,15.64,0,15.64S147.72,192.18,158,192.18Zm38.72,70.4c10.3,0,10.3,15.65,0,15.65S186.44,262.58,196.74,262.58ZM302.32,121.77H249.19a7.86,7.86,0,0,0-7.65,6.2h-21.6a7.85,7.85,0,0,0-7.65-6.2H198.16c-10.29,0-10.29,15.65,0,15.65h14.13a7.85,7.85,0,0,0,7.65-6.2h21.6a7.86,7.86,0,0,0,7.65,6.2h99.92A77.67,77.67,0,0,0,302.32,121.77Z" transform="translate(-119.46 -121.77)"></path></svg>