<svg xmlns="http://www.w3.org/2000/svg" data-name="Layer 1" viewBox="0 0 359.24 396"><defs><style>.cls-1,.cls-2{fill:#1f201d;}.cls-1{fill-rule:evenodd;}</style></defs><title>2a</title><path class="cls-1" d="M305.72,159.24c-19.1,13.3-48.81,20.6-79.59,14.77a71.48,71.48,0,0,0-30.24-6.68A134.16,134.16,0,0,1,129,149.64,136.17,136.17,0,0,1,80.66,103H195.89a134.67,134.67,0,0,1,62.63,15.32c18,9.44,34.9,23.34,46.68,40.17Z" transform="translate(-80.66 -53.09)"></path><path class="cls-1" d="M304.05,85a10.34,10.34,0,1,1-10.32,10.33A10.3,10.3,0,0,1,304.05,85Z" transform="translate(-80.66 -53.09)"></path><path class="cls-1" d="M336,100.64a16.37,16.37,0,1,1-16.3,16.3,16.38,16.38,0,0,1,16.3-16.3Z" transform="translate(-80.66 -53.09)"></path><path class="cls-1" d="M332.17,85.2a11.52,11.52,0,0,0,0-23,11.52,11.52,0,1,0,0,23Z" transform="translate(-80.66 -53.09)"></path><path class="cls-1" d="M356.05,95.16a6.16,6.16,0,1,0-6.22-6.22,6.14,6.14,0,0,0,6.22,6.22Z" transform="translate(-80.66 -53.09)"></path><path class="cls-1" d="M389,151.3a11.52,11.52,0,1,0,0-23,11.52,11.52,0,0,0,0,23Z" transform="translate(-80.66 -53.09)"></path><path class="cls-1" d="M389.39,76.11A11.51,11.51,0,1,0,378,64.54a11.52,11.52,0,0,0,11.44,11.57Z" transform="translate(-80.66 -53.09)"></path><path class="cls-1" d="M368.62,169a16.31,16.31,0,1,1-16.3,16.3,16.38,16.38,0,0,1,16.3-16.3Z" transform="translate(-80.66 -53.09)"></path><path class="cls-1" d="M353.44,152.42a6.16,6.16,0,1,0-6.22-6.22,6.14,6.14,0,0,0,6.22,6.22Z" transform="translate(-80.66 -53.09)"></path><path class="cls-1" d="M399,173.21a6.16,6.16,0,1,0-6.22-6.1,6.11,6.11,0,0,0,6.22,6.1Z" transform="translate(-80.66 -53.09)"></path><path class="cls-1" d="M376.45,117.57a6.17,6.17,0,1,0-6.09-6.1,6.13,6.13,0,0,0,6.09,6.1Z" transform="translate(-80.66 -53.09)"></path><path class="cls-1" d="M433.68,127.4a6.16,6.16,0,1,0-6.1-6.22,6.16,6.16,0,0,0,6.1,6.22Z" transform="translate(-80.66 -53.09)"></path><path class="cls-1" d="M421.74,85.08a6.17,6.17,0,1,0-6.22-6.23,6.14,6.14,0,0,0,6.22,6.23Z" transform="translate(-80.66 -53.09)"></path><path class="cls-1" d="M403.2,116.45A11.52,11.52,0,1,0,391.63,105a11.58,11.58,0,0,0,11.57,11.46Z" transform="translate(-80.66 -53.09)"></path><path class="cls-1" d="M230.41,369.49A9.71,9.71,0,0,0,229,370a135.09,135.09,0,0,0-98.2,79.08c-29.45-36.24-47.44-89.64-50.11-139.44a135.48,135.48,0,0,0,149.75,59.84Z" transform="translate(-80.66 -53.09)"></path><path class="cls-2" d="M304.28,319.59a135.32,135.32,0,0,1-223.62-9.94H195.89A71.07,71.07,0,0,0,267,238.42C267,273.69,281.14,303.92,304.28,319.59Z" transform="translate(-80.66 -53.09)"></path><path class="cls-1" d="M304.28,319.59C281.14,303.92,267,273.69,267,238.42a71.57,71.57,0,0,0-10.76-37.65,70.62,70.62,0,0,0-29.48-26.45c-.21-.13-.38-.2-.58-.31,30.78,5.83,60.49-1.47,79.59-14.77C337.29,201.65,339.28,274.49,304.28,319.59Z" transform="translate(-80.66 -53.09)"></path><path class="cls-1" d="M195.91,204.75a33.73,33.73,0,1,1-33.76,33.68,33.65,33.65,0,0,1,33.76-33.68Z" transform="translate(-80.66 -53.09)"></path></svg>