<svg xmlns="http://www.w3.org/2000/svg" data-name="Layer 1" viewBox="0 0 94.65 95.2"><defs><style>.cls-1{fill:#1f201d;}</style></defs><title>3</title><path class="cls-1" d="M111.36,64.35c-2.49,0-5.62,1.84-6.88,7A37.69,37.69,0,0,1,86.66,95.21a35.45,35.45,0,0,1-7.77,3.39c-7.14,2.07-11.18-7.43-3.14-9.74a27,27,0,0,0,8-3.93A27.76,27.76,0,0,0,94.52,55.2c-2.16-8.12-10.76-.82-9.83,3A17.44,17.44,0,1,1,76,46.94c4.05,2.16,12.4-4.36,6.6-8A27.72,27.72,0,0,0,40.43,57.68c-1.49,8.74-11.51,5.76-9.73-2.4A37.76,37.76,0,0,1,72.64,25.05c7.73,1,13-8,2.26-9.61a47.59,47.59,0,1,0,39.63,55.91C115.55,66,113.75,64.35,111.36,64.35ZM43.79,87.27a4.91,4.91,0,1,1,4.91-4.91A4.91,4.91,0,0,1,43.79,87.27Z" transform="translate(-20.17 -14.9)"></path><path class="cls-1" d="M70.7,53.75a8.94,8.94,0,0,0-9.94,13.88h0a8.94,8.94,0,0,0,15.77-3,9.45,9.45,0,0,0,.31-2.31,9.15,9.15,0,0,0-.69-3.48c14.06-14.09,16.34-12,27.21-12.43A10.63,10.63,0,1,0,92.85,32.48c-3.36,10.38-2,13.09-19.39,22.76A8.61,8.61,0,0,0,70.7,53.75Z" transform="translate(-20.17 -14.9)"></path></svg>