<svg xmlns="http://www.w3.org/2000/svg" data-name="Layer 1" viewBox="0 0 407.18 486.96"><defs><style>.cls-1{fill:#1f201d;fill-rule:evenodd;}</style></defs><title>4</title><path class="cls-1" d="M197.51,111.19c-39.66,32-75.12,82-98.81,135.13a494.73,494.73,0,0,1,143.49-47.19h0a41.94,41.94,0,1,1,3.94,35.51h0c-56.82,10.17-111.43,31.76-165,58.76C74.68,314.86,70.46,336.14,69,356.28c42.71-22.48,87.25-40.16,135.93-46.89a32.89,32.89,0,1,1,4.29,28.4h0C159,341.28,113.06,361,69.4,389.46a174,174,0,0,0,15.21,54.31q55-31.47,120.63-45h0a29.12,29.12,0,1,1,1,26.29h0A322.58,322.58,0,0,0,96.86,466.07c36.92,57.52,104.94,95.73,175.38,97.43,74.58-1.8,146.43-44.53,181.55-107.77a495.23,495.23,0,0,1-141.12,46h0a41.94,41.94,0,1,1-3.94-35.52h0c56.19-10,110.22-31.28,163.21-57.86a171.63,171.63,0,0,0,4-46.42q-.28-5.81-.89-11.75c-39.4,19.79-80.48,35.12-125,41.29a32.88,32.88,0,1,1-4.28-28.41h0c44.43-3.09,85.54-18.91,124.69-42.25a360.13,360.13,0,0,0-16.47-54.9,411.83,411.83,0,0,1-104.29,36.22h0a29.13,29.13,0,1,1-1-26.3h0a322.44,322.44,0,0,0,95.5-33.18c-23.39-51.17-57.57-99.05-95.76-130.32-57.7-47.24-93-47.79-150.86-1.14" transform="translate(-68.95 -76.55)"></path></svg>