<svg xmlns="http://www.w3.org/2000/svg" data-name="Layer 1" viewBox="0 0 218.62 152.21"><defs><style>.cls-1{fill:#575856;opacity:1;}.cls-1,.cls-2{fill-rule:evenodd;}.cls-2{fill:#1f201d;}</style></defs><title>5</title><path class="cls-1" d="M228.32,102.26a14.43,14.43,0,0,0-5.46-5.4L183.49,74.14,144,51.33a14.42,14.42,0,0,0-21.6,12.5h-.06v91.24a14.48,14.48,0,0,0,22.87,11.8l38.3-22.11L223,122a14.41,14.41,0,0,0,5.32-19.69Z" transform="translate(-12.69 -17.34)"></path><path class="cls-2" d="M80.5,54.06H92.4V66H80.5ZM42.55,87.39h11.9V99.28H42.55Zm3.18,25.43h9.34v9.33H45.73Zm-14-10.5h6v6h-6Zm-19-25.75h6v6h-6ZM60.85,41H66.8v6H60.85Zm33.93,60.68h16.66V85H94.78ZM48.61,52.15V45H41.49v7.11Zm.17,28.18V66.09H34.55V80.33Zm180.1,3.88A18,18,0,0,0,222,77.38l-49.8-28.75-50-28.86A18.24,18.24,0,0,0,94.86,35.58h-.08v16.1h16.66V68.34H94.78V85H78.12V68.34H61.46V58.78H51.9v9.56h9.56V85H78.12v16.66H61.46v16.66H78.12V101.66H94.78v16.66h27.54V107.45H111.44V135H82.88v-11.9h11.9V151A18.33,18.33,0,0,0,123.72,166l48.45-28,50-28.86A18.23,18.23,0,0,0,228.88,84.21Z" transform="translate(-12.69 -17.34)"></path></svg>