<svg xmlns="http://www.w3.org/2000/svg" data-name="Layer 1" viewBox="0 0 656.45 819.32"><defs><style>.cls-1{fill:#1f201d;fill-rule:evenodd;}</style></defs><title>6</title><path class="cls-1" d="M758,135.9C663.5,100.84,547.13,83.79,430,84.22c-117.09-.43-233.46,16.62-327.94,51.68t1.19,332.88C104.05,687.8,248.61,804,430,903.53V824.35q-6.57-3.79-13.06-7.62h89.48a33.21,33.21,0,1,0,0-31.25H367c-29.73-19.83-57.51-41-82.25-64.32H610.88a33.21,33.21,0,1,0,0-31.25H254.64a346.49,346.49,0,0,1-44.56-64.32H666.61a33.21,33.21,0,1,0,0-31.25h-471a319,319,0,0,1-18-64.33H692.39a33.2,33.2,0,1,0,0-31.25H173.61q-1.2-14.72-1.28-30.22l-.12-34.1h522a33.21,33.21,0,1,0,0-31.25H172.1l-.23-64.32H694.31a33.21,33.21,0,1,0,0-31.25H171.76l-.23-64.32H696a33.21,33.21,0,1,0,0-31.25H171.42l-.1-26.17c83-23.71,174.58-32.61,258.71-32.61s175.73,8.9,258.72,32.61l69.23-50Zm-222.22,653a12.24,12.24,0,1,1-12.24,12.24,12.24,12.24,0,0,1,12.24-12.24ZM640.18,693.3a12.24,12.24,0,1,1-12.24,12.23,12.24,12.24,0,0,1,12.24-12.23Zm55.73-95.58A12.24,12.24,0,1,1,683.67,610a12.24,12.24,0,0,1,12.24-12.24Zm25.78-95.57a12.24,12.24,0,1,1-12.24,12.24,12.24,12.24,0,0,1,12.24-12.24Zm1.83-95.57a12.24,12.24,0,1,1-12.24,12.24,12.24,12.24,0,0,1,12.24-12.24Zm.09-95.57a12.24,12.24,0,1,1-12.24,12.24A12.24,12.24,0,0,1,723.61,311Zm1.73-95.58a12.24,12.24,0,1,1-12.24,12.24A12.24,12.24,0,0,1,725.34,215.43Z" transform="translate(-102.09 -84.21)"></path></svg>