<svg xmlns="http://www.w3.org/2000/svg" data-name="Layer 1" viewBox="0 0 610.82 697.12"><defs><style>.cls-1{fill:#1f201d;}</style></defs><title>7</title><path class="cls-1" d="M159.26,257.47a22.75,22.75,0,1,0-22.74-22.75A22.74,22.74,0,0,0,159.26,257.47Z" transform="translate(-41.68 -41.52)"></path><path class="cls-1" d="M64.42,326.85A22.75,22.75,0,1,0,87.17,349.6,22.75,22.75,0,0,0,64.42,326.85Z" transform="translate(-41.68 -41.52)"></path><path class="cls-1" d="M374.38,173.1a22.75,22.75,0,1,0-22.75-22.75A22.76,22.76,0,0,0,374.38,173.1Z" transform="translate(-41.68 -41.52)"></path><path class="cls-1" d="M159.53,69.72a14.1,14.1,0,1,0-14.11-14.1A14.1,14.1,0,0,0,159.53,69.72Z" transform="translate(-41.68 -41.52)"></path><path class="cls-1" d="M275.7,163.82a13.16,13.16,0,1,0-13.15-13.15A13.16,13.16,0,0,0,275.7,163.82Z" transform="translate(-41.68 -41.52)"></path><path class="cls-1" d="M77.62,236.55a13.16,13.16,0,1,0,13.15,13.16A13.16,13.16,0,0,0,77.62,236.55Z" transform="translate(-41.68 -41.52)"></path><path class="cls-1" d="M128.17,163.8A13.16,13.16,0,1,0,115,177,13.16,13.16,0,0,0,128.17,163.8Z" transform="translate(-41.68 -41.52)"></path><path class="cls-1" d="M307,105.2a13.16,13.16,0,1,0-13.15-13.15A13.16,13.16,0,0,0,307,105.2Z" transform="translate(-41.68 -41.52)"></path><path class="cls-1" d="M431.67,237.58c0-.57.05-1.15.05-1.73a39.69,39.69,0,0,0-79.38,0,40.28,40.28,0,0,0,.27,4.55q-7,1.36-14,3.12a31.68,31.68,0,1,0-57.91,22.79q-7.23,3.94-14.15,8.34A59.46,59.46,0,1,0,184.11,360q-4.32,7.35-8.15,15a31.66,31.66,0,1,0-16.63,42.65,248.06,248.06,0,0,0-6.26,27.68,39.28,39.28,0,0,0-5.87-.44,39.69,39.69,0,1,0,5.05,79C170,645.38,274.63,738.64,401,738.64c138.88,0,251.46-112.58,251.46-251.46C652.49,358.68,556.1,252.7,431.67,237.58Zm2.6,321.71h-67.1V669.67a75.82,75.82,0,0,1-75.6-75.6V483.69H433.32a28.35,28.35,0,1,0,0-56.7H367.17a75.82,75.82,0,0,1-75.6-75.6H433.32c57.17,0,104,46.78,104,104C537.27,512,490,559.29,434.27,559.29Z" transform="translate(-41.68 -41.52)"></path></svg>